<svg width="185" height="113" viewBox="0 0 185 113" fill="none" xmlns="http://www.w3.org/2000/svg">
<path d="M65.3785 22.8437V81.7677C65.3782 82.5245 65.1412 83.2622 64.7007 83.8775C64.2601 84.4928 63.6381 84.9549 62.9218 85.1989L37.6842 93.8109L25.147 112.934L21.9741 99.1639L4.80004 105.016C4.25409 105.202 3.67144 105.256 3.10051 105.173C2.52957 105.089 1.98684 104.87 1.51742 104.535C1.04799 104.199 0.665423 103.756 0.401505 103.243C0.137587 102.73 -6.03676e-05 102.161 1.57031e-06 101.584V42.6603C-0.000703228 41.9028 0.235858 41.164 0.676472 40.5478C1.11709 39.9316 1.73962 39.4689 2.45668 39.2246L55.7013 21.076L1.59095 3.5393C1.36446 3.46519 1.15479 3.3472 0.973906 3.19206C0.79302 3.03692 0.644462 2.84768 0.536714 2.63513C0.428965 2.42258 0.364137 2.19088 0.34593 1.95328C0.327723 1.71567 0.356494 1.47681 0.4306 1.25032C0.504706 1.02384 0.622697 0.814167 0.777834 0.633281C0.932972 0.452395 1.12222 0.303837 1.33477 0.196088C1.54732 0.0883397 1.77901 0.0235113 2.01662 0.00530428C2.25422 -0.0129027 2.49309 0.0158684 2.71957 0.0899747L61.7388 19.2176C61.7388 19.2176 64.3495 19.9836 64.966 21.1666C65.2391 21.6833 65.3808 22.2593 65.3785 22.8437Z" fill="white"/>
<path d="M39.2664 24.0494C39.0821 24.049 38.8988 24.0215 38.7225 23.9678L15.1982 16.5752C14.9708 16.5037 14.7598 16.3882 14.577 16.2352C14.3943 16.0822 14.2435 15.8947 14.1332 15.6834C14.0229 15.4721 13.9553 15.2412 13.9343 15.0038C13.9133 14.7664 13.9392 14.5272 14.0107 14.2998C14.0821 14.0724 14.1976 13.8613 14.3506 13.6786C14.5036 13.4958 14.6911 13.345 14.9024 13.2348C15.3291 13.0121 15.8268 12.968 16.286 13.1122L39.8103 20.5049C40.225 20.6337 40.5798 20.9071 40.8099 21.2753C41.0401 21.6435 41.1305 22.0822 41.0647 22.5114C40.9988 22.9406 40.7811 23.332 40.451 23.6142C40.121 23.8965 39.7007 24.0509 39.2664 24.0494Z" fill="white"/>
<path d="M26.7426 28.6863C26.5594 28.6861 26.3773 28.6571 26.2032 28.6001L6.79905 22.5582C6.57167 22.4873 6.36047 22.3724 6.17751 22.22C5.99454 22.0675 5.8434 21.8805 5.7327 21.6696C5.62201 21.4588 5.55393 21.2282 5.53236 20.991C5.51079 20.7538 5.53614 20.5147 5.60697 20.2873C5.6778 20.06 5.79273 19.8488 5.94518 19.6658C6.09764 19.4828 6.28464 19.3317 6.4955 19.221C6.70637 19.1103 6.93698 19.0422 7.17415 19.0206C7.41133 18.9991 7.65043 19.0244 7.87781 19.0953L27.2819 25.1372C27.6999 25.2631 28.0585 25.5355 28.2917 25.9045C28.525 26.2734 28.6173 26.7142 28.5517 27.1457C28.4861 27.5773 28.267 27.9707 27.9347 28.2537C27.6024 28.5367 27.1791 28.6903 26.7426 28.6863Z" fill="white"/>
<path d="M12.5097 34.5334C12.3358 34.529 12.1634 34.5 11.9976 34.4472L1.31419 31.3424C1.08562 31.2757 0.872417 31.1647 0.686759 31.0156C0.501101 30.8666 0.34662 30.6824 0.232137 30.4736C0.000929058 30.052 -0.0533236 29.5558 0.0813144 29.0942C0.215952 28.6326 0.528452 28.2434 0.950067 28.0122C1.37168 27.781 1.86788 27.7267 2.32949 27.8613L13.0129 30.9798C13.4315 31.1019 13.792 31.3707 14.0285 31.7371C14.265 32.1034 14.3615 32.5427 14.3004 32.9745C14.2393 33.4062 14.0246 33.8015 13.6957 34.0878C13.3668 34.3741 12.9458 34.5323 12.5097 34.5334Z" fill="white"/>
<g clip-path="url(#clip0_155_719)">
<path d="M94.9507 25.9304V33.7498H105.57V38.7117H94.9507V46.9801H106.927V52.0736H88.623V20.8142H106.927V25.9304H94.9507Z" fill="white"/>
<path d="M111.421 32.947C112.333 31.1093 113.754 29.566 115.519 28.4972C117.284 27.4283 119.32 26.8778 121.389 26.9101C123 26.906 124.59 27.2659 126.038 27.9624C127.43 28.5895 128.642 29.5498 129.564 30.7563V19H135.984V52.0737H129.564V48.4089C128.748 49.6624 127.611 50.6796 126.268 51.357C124.745 52.127 123.053 52.5119 121.343 52.4773C119.3 52.4941 117.295 51.9356 115.561 50.8672C113.787 49.7625 112.359 48.1923 111.434 46.3316C110.395 44.241 109.878 41.9344 109.926 39.6053C109.875 37.2991 110.387 35.0149 111.421 32.947ZM128.725 35.7817C128.164 34.7389 127.319 33.8719 126.286 33.2781C125.284 32.7039 124.147 32.4033 122.989 32.4073C121.826 32.3967 120.682 32.7019 119.682 33.2896C118.682 33.8774 117.864 34.7253 117.317 35.7409C116.676 36.9278 116.36 38.2601 116.4 39.6053C116.365 40.9644 116.681 42.3099 117.317 43.515C117.877 44.5754 118.721 45.4634 119.757 46.0821C120.722 46.6702 121.832 46.984 122.966 46.9892C124.124 46.991 125.261 46.6906 126.263 46.1184C127.308 45.5262 128.161 44.6534 128.725 43.6011C129.361 42.3957 129.676 41.0504 129.642 39.6914C129.675 38.3325 129.36 36.9874 128.725 35.7817Z" fill="white"/>
<path d="M163.537 27.3093V52.0737H157.154V48.935C156.321 50.0245 155.227 50.8925 153.972 51.4614C152.634 52.0753 151.173 52.3853 149.698 52.3685C147.889 52.4045 146.1 51.9814 144.503 51.1393C142.984 50.3047 141.75 49.0416 140.959 47.5109C140.057 45.7459 139.612 43.7867 139.666 41.8096V27.2957H146.012V40.9433C146.012 42.9118 146.507 44.4236 147.497 45.4789C148.022 46.0147 148.656 46.4334 149.358 46.7072C150.059 46.981 150.811 47.1034 151.565 47.0664C153.313 47.0664 154.689 46.5372 155.691 45.4789C156.694 44.4206 157.191 42.9087 157.181 40.9433V27.3093H163.537Z" fill="white"/>
<path d="M88.5817 66.4878C89.5817 64.6166 91.1008 63.0667 92.9606 62.0202C94.9195 60.9355 97.1355 60.3875 99.3799 60.4328C102.483 60.4328 105.052 61.2008 107.088 62.7369C109.171 64.3502 110.618 66.6334 111.178 69.191H104.35C104.031 68.1751 103.387 67.2888 102.516 66.6647C101.58 66.0351 100.465 65.7173 99.3341 65.7576C98.5143 65.7247 97.6983 65.8838 96.9525 66.2219C96.2067 66.56 95.5522 67.0676 95.0423 67.7034C93.9877 69.0005 93.4604 70.8405 93.4604 73.2232C93.4604 75.6059 93.9877 77.4322 95.0423 78.7022C95.5532 79.3366 96.208 79.8429 96.9537 80.1802C97.6993 80.5175 98.5148 80.6762 99.3341 80.6434C101.893 80.6434 103.565 79.5111 104.35 77.2463H111.173C110.57 79.778 109.115 82.0316 107.046 83.6369C104.992 85.2123 102.437 86 99.3799 86C97.1351 86.0439 94.919 85.4944 92.9606 84.408C91.0993 83.364 89.5784 81.8155 88.5771 79.945C87.4879 77.8681 86.9454 75.5532 86.9998 73.2141C86.9462 70.876 87.4903 68.5624 88.5817 66.4878Z" fill="white"/>
<path d="M114.58 66.4652C115.506 64.6234 116.936 63.0756 118.707 61.9976C120.456 60.95 122.467 60.408 124.511 60.4328C126.215 60.3944 127.902 60.778 129.418 61.5486C130.732 62.2256 131.878 63.1849 132.769 64.3561V60.8319H139.143V85.5963H132.769V81.9679C131.896 83.1801 130.742 84.1677 129.404 84.848C127.877 85.6321 126.176 86.025 124.456 85.9909C122.419 86.0095 120.419 85.4508 118.693 84.3808C116.922 83.2723 115.495 81.7031 114.566 79.8452C113.529 77.7557 113.011 75.451 113.058 73.1234C113.018 70.8154 113.54 68.5318 114.58 66.4652ZM131.866 69.3044C131.306 68.2608 130.46 67.3934 129.427 66.8008C128.424 66.2266 127.284 65.9261 126.125 65.93C124.965 65.9207 123.825 66.2262 122.828 66.8131C121.832 67.4001 121.017 68.246 120.472 69.2591C119.832 70.4481 119.516 71.7815 119.555 73.128C119.517 74.4932 119.832 75.8453 120.472 77.0558C121.033 78.1153 121.877 79.003 122.911 79.623C123.877 80.2099 124.987 80.5237 126.121 80.5301C127.279 80.5334 128.418 80.2346 129.422 79.6638C130.456 79.0688 131.3 78.2001 131.862 77.1556C132.456 75.9362 132.765 74.5998 132.765 73.2459C132.765 71.892 132.456 70.5556 131.862 69.3362L131.866 69.3044Z" fill="white"/>
<path d="M151.564 65.9752V77.9628C151.531 78.2906 151.568 78.6217 151.673 78.9343C151.779 79.247 151.949 79.5341 152.174 79.777C152.582 80.1535 153.27 80.3395 154.233 80.3395H157.154V85.6144H153.178C147.844 85.6144 145.179 83.0442 145.182 77.9038V65.9752H142.197V60.8318H145.182V54.7087H151.551V60.8318H157.154V65.9752H151.564Z" fill="white"/>
<path d="M184.821 75.0919H166.522C166.582 76.682 167.262 78.1872 168.42 79.2918C169.542 80.3118 171.023 80.8571 172.547 80.8113C174.894 80.8113 176.566 79.8134 177.563 77.8178H184.381C183.685 80.1794 182.226 82.2504 180.227 83.7141C178.176 85.2531 175.661 86.0212 172.684 86.0182C170.418 86.0546 168.182 85.5058 166.196 84.4262C164.298 83.3884 162.745 81.8287 161.725 79.9359C160.625 77.872 160.072 75.5653 160.121 73.2323C160.069 70.8871 160.613 68.5666 161.702 66.4833C162.705 64.5974 164.245 63.044 166.132 62.0157C168.143 60.9442 170.4 60.4051 172.684 60.4509C174.909 60.4124 177.107 60.9353 179.071 61.9704C180.925 62.954 182.449 64.4515 183.455 66.2792C184.521 68.2513 185.058 70.4611 185.014 72.6971C185.017 73.4993 184.953 74.3003 184.821 75.0919ZM178.448 70.8919C178.462 70.1583 178.312 69.4306 178.007 68.7615C177.703 68.0924 177.252 67.4986 176.687 67.023C175.515 66.0456 174.02 65.529 172.487 65.5716C171.036 65.5316 169.623 66.0336 168.53 66.9777C167.416 68.0029 166.719 69.3945 166.567 70.8919H178.448Z" fill="white"/>
<path d="M165.073 52.0737H185V45.7193H165.073V52.0737Z" fill="white"/>
</g>
<defs>
<clipPath id="clip0_155_719">
<rect width="98" height="67" fill="white" transform="translate(87 19)"/>
</clipPath>
</defs>
</svg>
