<svg width="28" height="24" viewBox="0 0 28 24" fill="none" xmlns="http://www.w3.org/2000/svg">
<path d="M11.2166 2.2202L11.2166 2.22019L13.2532 0.552771L13.299 0.517386C13.2991 0.517286 13.2992 0.517187 13.2994 0.517087C13.5523 0.330092 13.8532 0.218923 14.167 0.196573C14.4809 0.174215 14.7946 0.241657 15.0716 0.391011C15.3406 0.539441 15.5643 0.757912 15.7192 1.02325C15.8741 1.28866 15.9542 1.59106 15.9511 1.89834V1.89884V6.50525V6.50529C15.9512 6.60871 15.9206 6.70983 15.8632 6.79584C15.8057 6.88186 15.7241 6.9489 15.6285 6.98849C15.533 7.02808 15.4279 7.03843 15.3264 7.01823C15.225 6.99803 15.1319 6.94819 15.0588 6.87502L15.0587 6.875L11.178 2.99431L11.178 2.9943C11.1264 2.94267 11.0861 2.8808 11.0599 2.81266C11.0336 2.74452 11.0219 2.67163 11.0255 2.5987C11.0292 2.52576 11.048 2.4544 11.081 2.38921C11.1139 2.32401 11.1601 2.26644 11.2166 2.2202ZM4.58616 6.22762L4.58617 6.22764L15.6318 17.2704C15.8363 17.4755 15.9511 17.7534 15.9511 18.043L15.9511 21.2473L15.9511 21.2478C15.9543 21.5512 15.8763 21.8498 15.7253 22.1129C15.5743 22.3759 15.3558 22.5938 15.0924 22.7441C14.8137 22.8992 14.4961 22.9706 14.1778 22.9498C13.8598 22.9291 13.5545 22.8171 13.2985 22.6274L6.72804 17.2488L6.71455 17.2378H6.69711H1.71428C1.27257 17.2378 0.84896 17.0623 0.536627 16.75C0.224295 16.4377 0.0488281 16.0141 0.0488281 15.5723V7.57239C0.0488281 7.13068 0.224295 6.70707 0.536627 6.39473C0.84896 6.0824 1.27257 5.90694 1.71428 5.90694H3.81282C3.81282 5.90694 3.81283 5.90694 3.81284 5.90694C4.10293 5.90708 4.3811 6.02243 4.58616 6.22762ZM21.5455 6.50358L21.5457 6.50387C22.3953 8.1689 22.8082 9.82632 22.8082 11.5723C22.8077 12.1544 22.7582 12.7354 22.6603 13.3091L22.6603 13.3092C22.6443 13.4037 22.6025 13.4921 22.5395 13.5645C22.4766 13.6369 22.3949 13.6905 22.3035 13.7196C22.2121 13.7487 22.1145 13.752 22.0213 13.7293C21.9281 13.7066 21.8429 13.6586 21.7752 13.5907L21.7751 13.5907L20.7494 12.565C20.6963 12.5118 20.6553 12.4478 20.6291 12.3774C20.603 12.3069 20.5923 12.2317 20.5979 12.1567C20.6127 11.9589 20.6202 11.7641 20.6202 11.5724C20.6202 10.1797 20.2852 8.84644 19.597 7.49875L19.5968 7.49846C19.5303 7.37039 19.4898 7.23044 19.4777 7.08666C19.4655 6.94287 19.4819 6.7981 19.5259 6.66069C19.5699 6.52326 19.6407 6.39591 19.7341 6.28595C19.8276 6.17599 19.9418 6.08561 20.0703 6.02C20.1989 5.95438 20.3391 5.91485 20.483 5.90366C20.6268 5.89246 20.7715 5.90984 20.9086 5.95479C21.0457 5.99974 21.1726 6.07137 21.2819 6.16556C21.3912 6.25974 21.4808 6.37462 21.5455 6.50358ZM24.5196 15.9204L24.5197 15.9203C24.9558 14.6455 25.1916 13.2794 25.1916 11.5724C25.1916 8.40656 24.4073 6.4417 23.0551 4.12381C22.9136 3.87349 22.8763 3.57751 22.9513 3.2999C23.0264 3.0222 23.2078 2.78523 23.4563 2.6403C23.7048 2.49538 24.0004 2.45416 24.279 2.52557C24.5576 2.59694 24.7968 2.77511 24.945 3.02152C26.449 5.59976 27.3796 7.92769 27.3796 11.5724C27.3796 13.7994 27.0235 15.5434 26.3922 17.1697L26.3921 17.1699C26.361 17.2512 26.3099 17.3235 26.2437 17.3801C26.1774 17.4367 26.098 17.4759 26.0128 17.494C25.9276 17.5121 25.8391 17.5086 25.7556 17.4838C25.672 17.4591 25.596 17.4138 25.5344 17.3521L24.6437 16.46C24.5746 16.3907 24.5263 16.3034 24.5044 16.208C24.4824 16.1126 24.4877 16.013 24.5196 15.9204Z" fill="#FC4F13" stroke="#FC4F13" stroke-width="0.0976562"/>
</svg>
