<svg width="427" height="434" viewBox="0 0 427 434" fill="none" xmlns="http://www.w3.org/2000/svg">
<path fill-rule="evenodd" clip-rule="evenodd" d="M18.9306 36.7498V36.6607V26.6535L18.8874 26.6437C18.8487 26.5635 18.8775 26.2674 18.8856 26.1828L18.8937 26.1271L16.7202 25.3638L35.6985 23.6494C35.7561 23.3362 35.7759 22.9419 35.5599 22.7773C35.5212 22.7494 35.4519 22.7269 35.3574 22.708C35.3736 22.4605 35.3448 22.2112 35.1819 22.0897C34.2558 21.394 14.7627 23.7546 14.4396 23.9886C14.3721 24.1083 14.319 24.283 14.2722 24.5052L12.7512 23.9724C12.4506 24.1749 11.9826 24.1317 11.6883 24.0543C10.3293 23.7006 8.15938 23.4468 7.53658 22.6593C7.22158 21.87 8.36638 21.6649 9.06388 21.5056C9.58498 21.3841 10.1268 21.295 10.6398 21.1519C14.5836 20.0503 18.5535 18.9918 22.5135 17.9352C25.2018 17.2179 27.8901 16.5042 30.5847 15.8166C31.527 15.5772 32.4756 15.337 33.4224 15.112C33.7392 15.0364 34.2792 14.8887 34.6365 14.8438L58.5639 21.1005C59.2632 21.2958 61.0317 21.5613 61.5366 21.969C61.7634 22.1544 61.8579 22.41 61.8948 22.6684C61.4025 23.373 56.3958 24.4656 55.5678 24.6546C53.8137 25.0524 50.5206 25.6915 49.0437 26.5177L48.7674 26.6688L48.7449 26.9523C48.6981 27.5157 48.6918 28.9486 48.6981 30.5623C44.4924 27.6192 38.9115 26.4601 32.58 28.6048L32.4963 28.6353C31.1121 28.7955 29.6775 29.1169 28.2033 29.6173C24.6096 30.8341 21.2589 33.4044 18.9306 36.7498ZM54.6327 23.5809C55.2627 23.4108 55.8882 23.2299 56.4606 23.0346L57.6486 22.627L54.6327 23.5809Z" fill="#F16322"/>
<path fill-rule="evenodd" clip-rule="evenodd" d="M33.6313 21.4658C33.6889 21.1517 33.7069 20.7575 33.49 20.5937C32.5621 19.898 13.0708 22.2569 12.7459 22.4936C11.9998 23.8715 12.4804 32.9021 12.511 35.459H14.0275L14.0257 35.4077C13.9888 34.0748 13.9888 32.7356 13.9663 31.4018L13.9519 30.6782L14.14 30.7628V27.5606L14.0725 24.8795L14.1238 23.2253L33.6313 21.4658Z" fill="#F16322"/>
<path fill-rule="evenodd" clip-rule="evenodd" d="M41.4676 59.7022C43.8121 56.7799 47.0197 52.0459 47.4967 48.3532C48.556 40.1254 42.4837 33.6985 35.1406 33.3007C23.6161 32.6752 18.0775 44.6533 22.1788 52.7632C24.4729 57.2956 35.1181 64.7638 39.223 66.8932C46.4293 72.259 39.4012 72.0835 37.6282 70.8829C31.6036 66.7978 21.9313 61.459 18.1882 55.0771C11.683 43.9837 19.2043 32.3062 28.2754 29.2309C47.2474 22.7968 59.5297 46.0474 47.9971 58.0561C43.5097 63.2005 42.6142 64.6981 42.6142 64.6981C42.2155 64.6981 39.223 62.5021 41.4676 59.7022Z" fill="#F16322"/>
<path fill-rule="evenodd" clip-rule="evenodd" d="M29.0196 72.0174C32.0085 72.1686 36.7533 72.9156 39.4722 74.1549C43.0848 75.8019 41.7744 78.2877 38.0349 77.7459C36.1278 77.4696 33.8661 76.7415 32.7501 76.494C30.8268 76.0692 28.8576 75.99 27.6273 75.3447C25.9506 74.4672 25.0407 71.8194 29.0196 72.0174Z" fill="#F16322"/>
<path fill-rule="evenodd" clip-rule="evenodd" d="M29.0196 78.3533C32.0085 78.5036 36.7533 79.2497 39.4722 80.4899C43.0848 82.1369 41.7744 84.6218 38.0349 84.0827C36.1278 83.8046 33.8661 83.0765 32.7501 82.8281C30.8268 82.4033 28.8576 82.325 27.6273 81.6788C25.9506 80.804 25.0407 78.1553 29.0196 78.3533Z" fill="#F16322"/>
<path fill-rule="evenodd" clip-rule="evenodd" d="M37.0089 49.3755L35.316 50.2143L34.0218 50.856C29.0682 53.313 29.9493 53.7036 30.2598 48.8202L30.3786 46.9329L30.4704 45.492C30.8178 39.9732 30.0393 40.5438 34.1154 43.2537L35.6895 44.2995L36.8919 45.0987C41.4963 48.1596 41.3919 47.2002 37.0089 49.3755Z" fill="#F16322"/>
<path fill-rule="evenodd" clip-rule="evenodd" d="M63.1782 60.5649H70.8138C77.2497 60.5649 81.6984 56.0884 81.6984 50.3257V50.2672C81.6984 44.5036 77.2497 40.0864 70.8138 40.0864H63.1782V60.5649ZM70.8138 43.3624C75.1149 43.3624 77.9238 46.3179 77.9238 50.3257V50.3841C77.9238 54.3918 75.1149 57.288 70.8138 57.288H66.7764V43.3624H70.8138ZM86.2614 60.5649H89.8596V40.0864H86.2614V60.5649ZM105.044 60.915C108.671 60.915 111.567 59.4534 113.585 57.7272V49.1268H104.867V52.257H110.102V56.0892C108.845 57.0252 107.089 57.6399 105.159 57.6399C100.976 57.6399 98.1954 54.5385 98.1954 50.3265V50.2681C98.1954 46.3468 101.064 43.042 104.837 43.042C107.44 43.042 108.992 43.8889 110.57 45.2353L112.853 42.5154C110.745 40.7298 108.552 39.7354 104.982 39.7354C98.8101 39.7354 94.4208 44.5926 94.4208 50.3265V50.3851C94.4226 56.3521 98.6364 60.915 105.044 60.915ZM118.471 60.5649H122.069V40.0864H118.471V60.5649ZM132.571 60.5649H136.2V43.4217H142.695V40.0864H126.078V43.4217H132.571V60.5649ZM142.107 60.5649L151.119 39.9405H154.454L163.465 60.5649H159.66C156.677 53.4603 155.941 51.6801 152.727 44.2407C149.908 50.8188 148.55 54.0939 145.793 60.5649H142.107ZM166.975 60.5649H181.339V57.288H170.573V40.0864H166.975V60.5649Z" fill="#62574F"/>
<path fill-rule="evenodd" clip-rule="evenodd" d="M64.4625 70.295C64.4625 69.4202 65.2554 68.7353 66.501 68.7353C67.4847 68.7353 68.3739 69.0512 69.2631 69.7748L69.8931 68.9414C68.922 68.162 67.9248 67.7651 66.528 67.7651C64.7082 67.7651 63.3834 68.8586 63.3834 70.3913C63.3834 71.978 64.395 72.689 66.5973 73.1678C68.607 73.5917 69.0858 74.0966 69.0858 75.0002C69.0858 75.9713 68.2371 76.6409 66.9537 76.6409C65.6271 76.6409 64.6686 76.19 63.6705 75.2873L63 76.0802C64.1493 77.1053 65.394 77.6111 66.9105 77.6111C68.8122 77.6111 70.1793 76.5446 70.1793 74.8895C70.1793 73.4135 69.1956 72.6332 67.0617 72.1688C64.9548 71.7179 64.4625 71.2121 64.4625 70.295ZM92.3742 75.9569L91.6632 75.2594C90.7452 76.1351 89.8848 76.64 88.5717 76.64C86.4639 76.64 84.8655 74.9048 84.8655 72.6737C84.8655 70.4444 86.4522 68.7344 88.5717 68.7344C89.8695 68.7344 90.7731 69.2816 91.5813 70.0475L92.3193 69.2546C91.3626 68.3519 90.3222 67.7363 88.5861 67.7363C85.7673 67.7363 83.7432 69.9656 83.7432 72.7007C83.7432 75.4628 85.7817 77.6381 88.5438 77.6381C90.2808 77.6399 91.3743 76.9703 92.3742 75.9569ZM112.654 73.1678V77.4752H113.733V67.9019H112.654V72.1553H107.128V67.9019H106.046V77.4743H107.128V73.1669L112.654 73.1678ZM137.569 72.6746C137.569 70.0214 135.613 67.7372 132.7 67.7372C129.786 67.7372 127.804 70.0484 127.804 72.7016C127.804 75.3548 129.76 77.639 132.673 77.639C135.586 77.6399 137.569 75.3287 137.569 72.6746ZM136.446 72.7025C136.446 74.8904 134.888 76.6409 132.699 76.6409C130.512 76.6409 128.925 74.8634 128.925 72.6746C128.925 70.4876 130.485 68.7353 132.673 68.7353C134.86 68.7353 136.446 70.5137 136.446 72.7025ZM160.979 72.6746C160.979 70.0214 159.024 67.7372 156.111 67.7372C153.198 67.7372 151.215 70.0484 151.215 72.7016C151.215 75.3548 153.172 77.639 156.085 77.639C158.998 77.6399 160.979 75.3287 160.979 72.6746ZM159.859 72.7025C159.859 74.8904 158.299 76.6409 156.111 76.6409C153.924 76.6409 152.338 74.8634 152.338 72.6746C152.338 70.4876 153.895 68.7353 156.085 68.7353C158.272 68.7353 159.859 70.5137 159.859 72.7025ZM175.05 77.4752H181.518V76.4771H176.13V67.9019H175.05V77.4752Z" fill="#62574F"/>
<path d="M272.4 41.7602C275.879 41.7602 278.7 38.9396 278.7 35.4602C278.7 31.9808 275.879 29.1602 272.4 29.1602C268.92 29.1602 266.1 31.9808 266.1 35.4602C266.1 38.9396 268.92 41.7602 272.4 41.7602Z" fill="#00335F"/>
<path d="M264.66 54.54C264.66 54.54 270.51 56.97 270.33 63.27C269.97 73.17 230.82 79.47 258.9 96.3C241.71 91.08 235.59 82.71 241.44 74.52C247.47 65.88 274.38 67.14 264.66 54.54Z" fill="#F6921E"/>
<path d="M251.97 64.35C255.449 64.35 258.27 61.5294 258.27 58.05C258.27 54.5706 255.449 51.75 251.97 51.75C248.491 51.75 245.67 54.5706 245.67 58.05C245.67 61.5294 248.491 64.35 251.97 64.35Z" fill="#F6921E"/>
<path d="M263.85 73.8903C263.85 73.8903 272.58 69.8403 273.48 63.7203C274.47 57.6003 268.71 53.3703 263.13 49.5003C251.97 41.8503 249.36 31.5903 258.27 22.3203C251.97 31.4103 257.46 39.5103 273.66 46.9803C287.07 53.2803 288.42 67.0503 263.85 73.8903Z" fill="#00335F"/>
<path d="M259.89 2.7002L262.14 7.1102L267 7.8302L263.4 11.2502L264.3 16.0202L259.89 13.7702L255.57 16.0202L256.38 11.2502L252.87 7.8302L257.73 7.1102L259.89 2.7002Z" fill="#00335F"/>
<path d="M258.99 81.2697L261.6 85.3197L264.21 81.2697H267.72L263.04 88.1997V93.8697H260.16V88.1997L255.48 81.1797C255.48 81.2697 258.99 81.2697 258.99 81.2697Z" fill="#F6921E"/>
<path d="M273.93 81C277.44 81 280.32 83.88 280.32 87.57C280.32 91.26 277.62 94.14 273.93 94.14C270.15 94.14 267.54 91.26 267.54 87.57C267.54 83.88 270.51 81 273.93 81ZM273.93 91.35C276.27 91.35 277.17 89.46 277.17 87.57C277.17 85.68 276.18 83.79 273.93 83.79C271.68 83.79 270.69 85.68 270.69 87.57C270.69 89.46 271.59 91.35 273.93 91.35Z" fill="#F6921E"/>
<path d="M291.3 89.3697C291.3 92.5197 289.59 94.1397 286.35 94.1397C283.11 94.1397 281.4 92.5197 281.4 89.3697V81.1797H284.28V88.4697C284.28 90.6297 284.91 91.1697 286.35 91.1697C287.79 91.1697 288.42 90.5397 288.42 88.4697V81.1797H291.3V89.3697Z" fill="#F6921E"/>
<path d="M291.48 81.2695H300.39V83.7895H297.42V93.9595H294.54V83.7895H291.57V81.2695H291.48Z" fill="#F6921E"/>
<path d="M304.35 93.8695H301.47V81.2695H304.35V86.3095H308.4V81.2695H311.28V93.9595H308.4V88.9195H304.35V93.8695Z" fill="#F6921E"/>
<path d="M324.6 83.7895H320.19V86.3095H324.33V88.8295H320.19V93.8695H317.31V81.2695H324.6V83.7895Z" fill="#00335F"/>
<path d="M331.8 81C335.31 81 338.19 83.88 338.19 87.57C338.19 91.26 335.49 94.14 331.8 94.14C328.02 94.14 325.41 91.26 325.41 87.57C325.41 83.88 328.38 81 331.8 81ZM331.8 91.35C334.14 91.35 335.04 89.46 335.04 87.57C335.04 85.68 334.05 83.79 331.8 83.79C329.55 83.79 328.56 85.68 328.56 87.57C328.56 89.46 329.46 91.35 331.8 91.35Z" fill="#00335F"/>
<path d="M349.17 89.3697C349.17 92.5197 347.46 94.1397 344.22 94.1397C340.98 94.1397 339.27 92.5197 339.27 89.3697V81.1797H342.15V88.4697C342.15 90.6297 342.78 91.1697 344.22 91.1697C345.66 91.1697 346.29 90.5397 346.29 88.4697V81.1797H349.17V89.3697Z" fill="#00335F"/>
<path d="M353.76 93.8695H350.88V81.2695H353.76L358.8 89.0995V81.2695H361.68V93.9595H358.8L353.76 86.1295V93.8695Z" fill="#00335F"/>
<path d="M367.17 81.2695C370.68 81.2695 373.56 83.8795 373.56 87.5695C373.56 91.2595 370.68 93.8695 367.17 93.8695H363.48V81.2695H367.17ZM366.9 91.3495C369.06 91.3495 370.5 89.7295 370.5 87.5695C370.5 85.4095 369.06 83.7895 366.9 83.7895H366.45V91.2595C366.45 91.3495 366.9 91.3495 366.9 91.3495Z" fill="#00335F"/>
<path d="M386.43 93.8697H383.37L382.47 91.3497H377.61L376.71 93.8697H373.65L378.78 81.1797H381.48L386.43 93.8697ZM379.95 85.1397L378.51 88.8297H381.39L379.95 85.1397Z" fill="#00335F"/>
<path d="M385.35 81.2695H394.26V83.7895H391.29V93.9595H388.41V83.7895H385.44V81.2695H385.35Z" fill="#00335F"/>
<path d="M398.22 93.8695H395.34V81.2695H398.22V93.8695Z" fill="#00335F"/>
<path d="M405.87 81C409.38 81 412.26 83.88 412.26 87.57C412.26 91.26 409.56 94.14 405.87 94.14C402.09 94.14 399.48 91.26 399.48 87.57C399.48 83.88 402.36 81 405.87 81ZM405.87 91.35C408.21 91.35 409.11 89.46 409.11 87.57C409.11 85.68 408.12 83.79 405.87 83.79C403.62 83.79 402.63 85.68 402.63 87.57C402.54 89.46 403.44 91.35 405.87 91.35Z" fill="#00335F"/>
<path d="M416.4 93.8695H413.52V81.2695H416.4L421.44 89.0995V81.2695H424.32V93.9595H421.44L416.4 86.1295V93.8695Z" fill="#00335F"/>
<path fill-rule="evenodd" clip-rule="evenodd" d="M3.00586 232.606L3.39376 211.339L8.22676 208.633L26.3987 218.879L26.9792 241.113C23.1128 244.206 22.5251 243.837 19.439 242.466L3.00586 232.606ZM4.80496 229.896L20.1608 238.983L20.1734 223.188L5.11636 214.405L4.80496 229.896ZM11.1788 234.473C10.5758 234.122 9.89356 234.168 9.65686 234.575C9.42016 234.982 9.71806 235.597 10.3211 235.948C10.9241 236.299 11.6063 236.253 11.843 235.846C12.0797 235.439 11.7818 234.824 11.1788 234.473ZM3.39376 211.339L21.9536 222.166V242.66L25.2395 240.147L24.8534 219.653L8.05036 210.237L4.77526 212.146L3.39376 211.339Z" fill="url(#paint0_linear_409_552)"/>
<path fill-rule="evenodd" clip-rule="evenodd" d="M52.6236 232.606L52.2375 211.339L51.1548 211.97L51.8145 211.485L47.2236 208.383L47.2011 208.747L29.2299 218.88L28.6494 241.114C32.5158 244.207 33.1035 243.838 36.1896 242.467L52.6236 232.606ZM50.6436 212.27L33.6759 222.166V242.66L30.39 240.147L30.7761 219.654L47.5476 210.255L50.6436 212.27Z" fill="url(#paint1_linear_409_552)"/>
<path fill-rule="evenodd" clip-rule="evenodd" d="M28.4454 189.896L46.6695 200.865L45.8037 201.36L46.3005 205.6L46.5966 206.404L28.6353 217.019L9.09086 206.404C8.34656 201.51 8.95946 201.185 11.6901 199.198L28.4454 189.896ZM26.5536 196.181V203.893L32.2704 199.897L26.5536 196.181ZM44.5059 202.1L28.0125 211.524L10.2654 201.278L10.7991 205.381L28.7397 215.293L44.982 205.636L44.5059 202.1Z" fill="url(#paint2_linear_409_552)"/>
<path fill-rule="evenodd" clip-rule="evenodd" d="M39.4072 225.395L47.6116 220.608V222.034L39.4072 226.82V225.395Z" fill="white"/>
<path fill-rule="evenodd" clip-rule="evenodd" d="M39.4072 228.986L47.6116 224.2V225.626L39.4072 230.412V228.986Z" fill="white"/>
<path fill-rule="evenodd" clip-rule="evenodd" d="M39.4072 232.519L47.6116 227.732V229.16L39.4072 233.945V232.519Z" fill="white"/>
<path fill-rule="evenodd" clip-rule="evenodd" d="M60.9404 219.727H69.0206C75.8327 219.727 80.5397 214.99 80.5397 208.89V208.829C80.5397 202.729 75.8327 198.054 69.0206 198.054H60.9404V219.727ZM69.0206 201.522C73.5737 201.522 76.5464 204.649 76.5464 208.89V208.952C76.5464 213.194 73.5737 216.259 69.0206 216.259H64.7483V201.522H69.0206ZM85.3691 219.727H89.177V198.055H85.3691V219.727ZM105.247 220.098C109.084 220.098 112.15 218.549 114.287 216.724V207.621H105.061V210.933H110.603V214.99C109.272 215.981 107.414 216.631 105.369 216.631C100.943 216.631 98.0015 213.35 98.0015 208.89V208.829C98.0015 204.679 101.035 201.181 105.029 201.181C107.785 201.181 109.425 202.078 111.097 203.503L113.512 200.625C111.282 198.736 108.962 197.683 105.183 197.683C98.6513 197.683 94.0073 202.823 94.0073 208.89V208.952C94.0082 215.268 98.4659 220.098 105.247 220.098ZM119.458 219.727H123.266V198.055H119.458V219.727ZM134.38 219.727H138.22V201.583H145.093V198.054H127.506V201.583H134.38L134.38 219.727ZM144.473 219.727L154.009 197.9H157.539L167.076 219.727H163.05C159.914 212.262 158.963 209.972 155.712 202.451C152.758 209.346 151.283 212.899 148.375 219.727H144.473ZM170.791 219.727H185.994V216.259H174.599V198.054H170.791V219.727Z" fill="black"/>
<path fill-rule="evenodd" clip-rule="evenodd" d="M68.5818 228H61.1919V238.222H68.6565V237.17H62.3466V233.591H67.9248V232.541H62.3466V229.05H68.5818V228ZM84.5199 233.095C84.5199 230.205 82.2987 228 79.0866 228H75.5388V238.222H79.0866C82.2996 238.221 84.5199 235.987 84.5199 233.095ZM83.3229 233.125C83.3229 235.403 81.6723 237.155 79.0866 237.155H76.6917V229.065H79.0866C81.6723 229.064 83.3229 230.846 83.3229 233.125ZM99.8721 228H98.7174V233.942C98.7174 236.177 97.5222 237.316 95.6385 237.316C93.6801 237.316 92.5119 236.075 92.5119 233.869V227.999H91.3572V233.942C91.3572 236.833 93.0825 238.381 95.6088 238.381C98.163 238.381 99.8721 236.833 99.8721 233.854V228ZM115.926 236.6L115.166 235.856C114.19 236.791 113.269 237.331 111.867 237.331C109.617 237.331 107.91 235.476 107.91 233.095C107.91 230.715 109.604 228.891 111.867 228.891C113.252 228.891 114.217 229.475 115.08 230.292L115.869 229.445C114.848 228.48 113.736 227.824 111.882 227.824C108.873 227.824 106.713 230.205 106.713 233.125C106.713 236.075 108.888 238.397 111.838 238.397C113.692 238.397 114.861 237.682 115.926 236.6ZM127.367 227.926H126.285L121.626 238.222H122.81L124.022 235.52H129.587L130.784 238.222H132.026L127.367 227.926ZM129.133 234.483H124.474L126.81 229.27L129.133 234.483ZM141.157 229.064H144.59V227.999H136.557V229.064H139.99V238.221H141.158L141.157 229.064ZM151.413 228V238.222H152.568V228H151.413ZM170.095 233.095C170.095 230.262 168.008 227.824 164.897 227.824C161.787 227.824 159.669 230.292 159.669 233.125C159.669 235.958 161.756 238.397 164.867 238.397C167.979 238.397 170.095 235.929 170.095 233.095ZM168.898 233.125C168.898 235.461 167.233 237.331 164.897 237.331C162.561 237.331 160.865 235.433 160.865 233.095C160.865 230.759 162.531 228.891 164.868 228.891C167.205 228.89 168.898 230.788 168.898 233.125ZM184.617 236.191L178.176 228H177.096V238.222H178.221V229.839L184.82 238.222H185.742V228H184.617V236.191Z" fill="black"/>
<path fill-rule="evenodd" clip-rule="evenodd" d="M262.68 242.431L264.75 238.831L272.94 224.611H256.56H240.27L248.37 238.831L250.53 242.431H262.68Z" fill="#FACB8F"/>
<path fill-rule="evenodd" clip-rule="evenodd" d="M256.56 252.961L261.24 244.771H251.88L256.56 252.961Z" fill="#333333"/>
<path fill-rule="evenodd" clip-rule="evenodd" d="M240.27 222.271H249.18V196.261C249.18 195.181 248.28 194.281 247.2 194.281H242.16C241.08 194.281 240.18 195.181 240.18 196.261C240.27 196.261 240.27 222.271 240.27 222.271Z" fill="#ECC469"/>
<path fill-rule="evenodd" clip-rule="evenodd" d="M252.06 222.271H261.06V196.261C261.06 195.181 260.16 194.281 259.08 194.281H254.13C253.05 194.281 252.15 195.181 252.15 196.261C252.06 196.261 252.06 222.271 252.06 222.271Z" fill="#E7745D"/>
<path fill-rule="evenodd" clip-rule="evenodd" d="M264.03 222.271H272.94V196.261C272.94 195.181 272.04 194.281 270.96 194.281H266.01C264.93 194.281 264.03 195.181 264.03 196.261V222.271Z" fill="#24A192"/>
<path fill-rule="evenodd" clip-rule="evenodd" d="M244.68 183.751C247.11 183.751 249.18 185.731 249.18 188.251C249.18 190.771 247.2 192.751 244.68 192.751C242.16 192.751 240.18 190.771 240.18 188.251C240.18 185.731 242.25 183.751 244.68 183.751Z" fill="#ECC469"/>
<path fill-rule="evenodd" clip-rule="evenodd" d="M256.56 183.751C258.99 183.751 261.06 185.731 261.06 188.251C261.06 190.771 258.99 192.751 256.56 192.751C254.13 192.751 252.06 190.771 252.06 188.251C252.06 185.731 254.13 183.751 256.56 183.751Z" fill="#E7745D"/>
<path fill-rule="evenodd" clip-rule="evenodd" d="M268.439 183.751C270.869 183.751 272.939 185.731 272.939 188.251C272.939 190.771 270.959 192.751 268.439 192.751C265.919 192.751 263.939 190.771 263.939 188.251C263.939 185.731 266.009 183.751 268.439 183.751Z" fill="#24A192"/>
<path d="M283.02 212.551C285 213.631 287.88 214.351 291.12 214.351C298.23 214.351 301.92 210.841 301.92 205.981C301.83 202.111 299.67 199.681 294.81 197.881C291.39 196.621 290.13 195.901 290.13 194.191C290.13 192.481 291.39 191.311 293.91 191.311C296.25 191.311 298.41 192.211 299.58 192.841L300.84 188.161C299.31 187.261 296.7 186.541 293.73 186.541C287.52 186.541 283.65 190.141 283.65 194.821C283.65 197.971 285.81 200.851 290.94 202.561C294.18 203.731 295.35 204.631 295.35 206.431C295.35 208.141 294.09 209.401 291.12 209.401C288.69 209.401 285.81 208.321 284.37 207.421L283.02 212.551ZM309.12 213.901H315.69V198.061C315.69 197.341 315.87 196.531 316.05 195.811C316.68 194.011 318.39 192.031 320.91 192.031C323.97 192.031 325.5 194.641 325.5 198.331V213.721H332.07V197.971C332.07 197.251 332.16 196.261 332.34 195.721C333.06 193.831 334.77 192.211 337.11 192.211C340.35 192.211 341.88 194.821 341.88 199.231V213.991H348.45V198.151C348.45 189.601 343.95 186.631 339.63 186.631C337.38 186.631 335.67 187.171 334.14 188.251C332.97 188.971 331.89 190.051 330.9 191.491H330.81C329.64 188.611 326.94 186.631 323.43 186.631C318.84 186.631 316.5 189.061 315.24 191.131H315.06L314.7 187.261H308.94C309.12 189.511 309.21 192.121 309.21 195.181L309.12 213.901ZM377.88 197.971C377.88 192.121 375.45 186.721 366.9 186.721C362.67 186.721 359.25 187.891 357.27 189.061L358.53 193.381C360.33 192.211 363.12 191.401 365.73 191.401C370.5 191.401 371.13 194.281 371.13 196.081V196.531C361.32 196.441 355.38 199.861 355.38 206.611C355.38 210.661 358.35 214.531 363.75 214.531C367.26 214.531 369.96 213.091 371.58 210.931H371.76L372.3 213.901H378.33C378.06 212.191 377.88 209.941 377.88 207.511V197.971ZM371.4 204.541C371.4 205.081 371.4 205.531 371.22 206.071C370.59 207.961 368.61 209.761 366 209.761C363.84 209.761 362.13 208.501 362.13 205.981C362.13 201.931 366.72 200.941 371.4 200.941V204.541ZM386.79 213.901H393.54V200.041C393.54 199.321 393.54 198.601 393.72 197.971C394.35 194.911 396.51 192.841 399.75 192.841C400.47 192.841 401.1 192.931 401.73 193.021V186.721C401.19 186.631 400.83 186.541 400.11 186.541C397.23 186.541 394.17 188.431 392.82 192.211H392.64L392.37 187.171H386.61C386.79 189.511 386.79 192.121 386.79 195.721V213.901ZM410.37 182.221V187.261H406.59V192.301H410.37V204.811C410.37 208.321 411.09 210.751 412.53 212.281C413.79 213.631 415.77 214.531 418.29 214.531C420.45 214.531 422.16 214.261 423.15 213.811L423.06 208.681C422.34 208.951 421.62 208.951 420.36 208.951C417.84 208.951 416.94 207.331 416.94 204.091V192.301H423.33V187.261H416.94V180.421L410.37 182.221Z" fill="#333333"/>
<path d="M297.78 238.561C297.78 238.201 297.87 237.571 297.87 236.851C297.87 233.341 296.16 229.111 291.12 229.111C286.08 229.111 283.38 233.251 283.38 237.571C283.38 242.341 286.44 245.581 291.57 245.581C293.82 245.581 295.71 245.131 297.06 244.501L296.43 241.801C295.17 242.161 293.91 242.521 292.11 242.521C289.5 242.521 287.34 241.261 287.25 238.471H297.78V238.561ZM287.16 235.681C287.43 234.061 288.42 231.901 290.85 231.901C293.55 231.901 294.09 234.241 294.09 235.681H287.16ZM311.82 222.271V231.181H311.73C311.01 230.011 309.48 229.111 307.32 229.111C303.54 229.111 300.21 232.261 300.3 237.481C300.3 242.341 303.27 245.581 307.05 245.581C309.3 245.581 311.28 244.501 312.18 242.791H312.27L312.54 245.221H316.05C315.96 244.141 315.87 242.431 315.87 240.811V222.271H311.82ZM311.82 238.471C311.82 238.831 311.82 239.191 311.64 239.641C311.28 241.351 309.93 242.431 308.22 242.431C305.7 242.431 304.35 240.271 304.35 237.391C304.35 234.511 305.7 232.261 308.31 232.261C310.11 232.261 311.37 233.521 311.73 235.051C311.82 235.321 311.82 235.771 311.82 236.131V238.471ZM334.41 229.561H330.45V239.101C330.45 239.461 330.36 239.911 330.18 240.361C329.82 241.351 328.74 242.521 327.12 242.521C324.96 242.521 324.15 240.811 324.15 238.201V229.651H320.19V238.921C320.19 244.051 322.8 245.761 325.68 245.761C328.47 245.761 330 244.141 330.72 242.971H330.9L331.08 245.311H334.5C334.5 244.051 334.41 242.521 334.41 240.541V229.561ZM349.89 241.801C349.17 242.161 348.18 242.431 346.74 242.431C344.04 242.431 341.97 240.631 341.97 237.391C341.97 234.511 343.68 232.261 346.74 232.261C348.18 232.261 349.08 232.531 349.8 232.891L350.52 229.921C349.62 229.561 348.18 229.201 346.74 229.201C341.16 229.201 338.01 232.891 338.01 237.571C338.01 242.431 341.25 245.671 346.11 245.671C348.09 245.671 349.8 245.221 350.61 244.861L349.89 241.801ZM365.82 235.861C365.82 232.351 364.38 229.111 359.34 229.111C356.82 229.111 354.84 229.831 353.58 230.461L354.3 233.071C355.38 232.351 357 231.901 358.53 231.901C361.23 231.901 361.77 233.611 361.77 234.691V234.961C356.01 234.871 352.41 236.941 352.41 240.901C352.41 243.241 354.21 245.581 357.36 245.581C359.43 245.581 361.14 244.771 362.04 243.421H362.22L362.49 245.131H366.09C365.91 244.231 365.82 242.791 365.82 241.351V235.861ZM361.95 239.731C361.95 240.001 361.95 240.271 361.86 240.541C361.5 241.711 360.33 242.791 358.71 242.791C357.45 242.791 356.46 242.071 356.46 240.541C356.46 238.201 359.16 237.571 361.95 237.571V239.731ZM370.68 226.591V229.561H368.43V232.531H370.68V239.911C370.68 241.981 371.04 243.421 371.94 244.321C372.66 245.131 373.92 245.581 375.36 245.581C376.62 245.581 377.61 245.311 378.24 245.131L378.15 242.161C377.7 242.341 377.34 242.341 376.62 242.341C375.09 242.341 374.55 241.351 374.55 239.461V232.531H378.33V229.561H374.55V225.511L370.68 226.591ZM385.53 245.221V229.561H381.57V245.311H385.53V245.221ZM383.55 222.991C382.29 222.991 381.3 223.891 381.3 225.151C381.3 226.411 382.11 227.311 383.55 227.311C384.9 227.311 385.8 226.411 385.8 225.151C385.8 223.891 384.9 222.991 383.55 222.991ZM397.23 229.111C392.46 229.111 389.04 232.351 389.04 237.481C389.04 242.521 392.46 245.581 396.87 245.581C400.92 245.581 404.97 242.971 404.97 237.211C404.97 232.441 401.82 229.111 397.23 229.111ZM397.14 232.081C399.84 232.081 400.92 234.871 400.92 237.301C400.92 240.541 399.3 242.701 397.05 242.701C394.71 242.701 393.18 240.451 393.18 237.391C393.18 234.781 394.35 232.081 397.14 232.081ZM408.48 245.221H412.44V236.041C412.44 235.591 412.53 235.051 412.71 234.781C413.07 233.521 414.15 232.531 415.77 232.531C418.02 232.531 418.83 234.241 418.83 236.491V245.311H422.79V235.951C422.79 231.001 419.91 229.201 417.12 229.201C414.51 229.201 412.89 230.731 412.08 231.991H411.99L411.81 229.651H408.3C408.39 231.001 408.48 232.531 408.48 234.331V245.221Z" fill="#333333"/>
<path fill-rule="evenodd" clip-rule="evenodd" d="M16.4367 366.814L16.2558 362.085C16.2558 362.085 6.61413 357.522 4.33263 356.271C2.05113 355.02 1.75683 353.622 7.35033 351.193C12.9438 348.763 26.7993 342.71 29.0808 341.753C34.659 339.414 37.4859 339.414 43.065 341.753C45.3465 342.71 59.202 348.763 64.7955 351.193C70.389 353.622 70.0947 355.019 67.8132 356.271C65.5317 357.522 55.89 362.085 55.89 362.085L55.71 366.814H16.4367Z" fill="#082E4A"/>
<path d="M7.81037 354.78H5.89697V365.231H7.81037V354.78Z" fill="#082E4A"/>
<path fill-rule="evenodd" clip-rule="evenodd" d="M6.96419 364.275C8.36639 364.275 9.50309 365.412 9.50309 366.814C9.50309 368.216 8.36639 369.353 6.96419 369.353C5.56199 369.353 4.42529 368.216 4.42529 366.814C4.42529 365.412 5.56199 364.275 6.96419 364.275Z" fill="#082E4A"/>
<path fill-rule="evenodd" clip-rule="evenodd" d="M6.88607 365.895L4.16357 375.561C4.16357 375.561 5.13197 376.999 6.88697 376.999C8.64197 376.999 9.61037 375.561 9.61037 375.561L6.88607 365.895Z" fill="#082E4A"/>
<path fill-rule="evenodd" clip-rule="evenodd" d="M57.5982 417.13V372.933C57.5982 372.272 57.0447 371.719 56.3841 371.719H15.7626C15.1011 371.719 14.5485 372.272 14.5485 372.933V405.681C14.5485 406.342 15.102 406.895 15.7626 406.895H50.4954L51.5385 408.407C52.7769 410.202 54.018 411.995 55.2636 413.785C56.0403 414.901 56.8179 416.016 57.5982 417.13ZM15.7626 368.22H56.3832C58.9761 368.22 61.0965 370.341 61.0965 372.933V389.307V389.334V389.414V389.546V389.728V389.958V390.235V390.556V390.92V391.326V391.772V392.255V392.775V393.33V393.917V394.537V395.186V395.861V396.564V397.292V398.041V398.812V399.602V400.409V401.233V402.071V402.921V403.782V404.653V405.53V405.68V427.739C61.0965 428.318 53.7237 417.733 48.6576 410.393H15.7626C13.1697 410.393 11.0493 408.272 11.0493 405.68V372.933C11.0493 370.34 13.1706 368.22 15.7626 368.22Z" fill="#8CC740"/>
<path fill-rule="evenodd" clip-rule="evenodd" d="M52.0787 379.071C54.4331 379.071 57.7901 379.271 59.3687 381.309C61.0076 383.425 60.3218 387.06 59.7791 389.447C58.8071 393.725 54.9146 394.906 50.9897 394.906C48.1646 394.906 45.4007 393.655 43.3703 391.722C41.5703 390.007 40.1537 387.528 40.3886 384.967C40.466 384.13 40.7189 383.335 41.1392 382.608C43.1147 379.186 48.602 379.071 52.0787 379.071ZM31.0079 382.607C31.4282 383.335 31.6811 384.13 31.7585 384.966C31.9943 387.527 30.5768 390.006 28.7768 391.721C26.7464 393.654 23.9825 394.905 21.1574 394.905C17.2325 394.905 13.34 393.725 12.368 389.446C11.8253 387.059 11.1395 383.425 12.7784 381.308C14.3561 379.27 17.714 379.07 20.0684 379.07C23.5451 379.071 29.0324 379.186 31.0079 382.607Z" fill="white"/>
<path fill-rule="evenodd" clip-rule="evenodd" d="M59.5223 389.388C58.5863 393.508 54.8333 394.643 50.9894 394.643C44.4059 394.643 38.5055 387.694 41.3666 382.738C43.2665 379.447 48.6512 379.334 52.0793 379.334C59.6789 379.334 61.1828 382.084 59.5223 389.388ZM12.6233 389.388C13.5593 393.508 17.3123 394.643 21.1562 394.643C27.7397 394.643 33.6401 387.694 30.779 382.738C28.8791 379.447 23.4944 379.334 20.0663 379.334C12.4676 379.334 10.9637 382.084 12.6233 389.388ZM36.0728 379.53C31.7996 379.53 26.2682 377.687 20.0672 377.687C13.8662 377.687 8.25195 379.697 8.25195 382.463C9.74415 385.048 10.5983 387.91 11.0177 389.753C11.4371 391.596 13.0292 396.29 21.1571 396.29C29.2859 396.29 32.4701 389.921 33.6428 386.485C34.8173 383.046 37.3292 383.046 38.5028 386.485C39.6764 389.921 42.8606 396.29 50.9885 396.29C59.1173 396.29 60.7094 391.597 61.1278 389.753C61.5473 387.91 62.4013 385.048 63.8936 382.463C63.8936 379.697 58.2794 377.687 52.0784 377.687C45.8774 377.687 40.3469 379.53 36.0728 379.53Z" fill="#8CC740"/>
<path fill-rule="evenodd" clip-rule="evenodd" d="M22.9888 383.091C23.3488 383.091 23.6971 383.139 24.0283 383.231C23.4649 383.648 23.1004 384.317 23.1004 385.07C23.1004 386.333 24.1237 387.356 25.3864 387.356C25.9579 387.356 26.4808 387.146 26.8813 386.8C26.884 386.862 26.8858 386.924 26.8858 386.987C26.8858 389.139 25.1416 390.883 22.9888 390.883C20.836 390.883 19.0918 389.139 19.0918 386.987C19.0918 384.835 20.8369 383.091 22.9888 383.091Z" fill="#082E4A"/>
<path fill-rule="evenodd" clip-rule="evenodd" d="M49.4156 383.091C49.7756 383.091 50.1239 383.139 50.4551 383.231C49.8917 383.648 49.5272 384.317 49.5272 385.07C49.5272 386.333 50.5505 387.356 51.8132 387.356C52.3847 387.356 52.9076 387.146 53.3081 386.8C53.3108 386.862 53.3126 386.924 53.3126 386.987C53.3126 389.139 51.5684 390.883 49.4156 390.883C47.2637 390.883 45.5186 389.139 45.5186 386.987C45.5195 384.835 47.2637 383.091 49.4156 383.091Z" fill="#082E4A"/>
<path fill-rule="evenodd" clip-rule="evenodd" d="M29.1167 400.561C29.1167 404.206 43.0298 404.206 43.0298 400.561C43.0298 400.359 42.7292 400.188 42.2198 400.045C39.7601 401.867 32.3873 401.867 29.9267 400.045C29.4173 400.187 29.1167 400.359 29.1167 400.561Z" fill="#082E4A"/>
<path d="M175.049 370.202V368.215H186.203V370.202H181.663V388.592H179.591V370.202H175.049ZM156.493 388.592V368.214H156.933L170.485 383.801V368.214H172.528V388.592H172.065L158.594 373.144V388.592H156.493ZM141.669 368.214H153.334V370.201H143.713V376.586H153.25V378.573H143.712V386.605H153.249V388.592H141.669V368.214ZM122.872 386.663H125.223C128.032 386.663 129.976 386.487 131.065 386.137C132.593 385.636 133.799 384.742 134.674 383.446C135.548 382.146 135.984 380.561 135.984 378.688C135.984 376.725 135.511 375.041 134.56 373.65C133.614 372.255 132.289 371.3 130.597 370.784C129.324 370.396 127.229 370.203 124.31 370.203H122.872V386.663ZM120.913 388.592V368.214H125.142C128.188 368.214 130.401 368.46 131.778 368.948C133.756 369.644 135.303 370.84 136.414 372.552C137.526 374.26 138.084 376.294 138.084 378.659C138.084 380.703 137.644 382.496 136.759 384.046C135.88 385.598 134.729 386.747 133.324 387.485C131.915 388.223 129.938 388.592 127.398 388.592H120.913ZM102.807 368.214H104.851V380.522C104.851 381.979 104.88 382.892 104.936 383.252C105.035 384.055 105.271 384.728 105.64 385.267C106.009 385.806 106.577 386.26 107.343 386.624C108.109 386.988 108.88 387.173 109.661 387.173C110.332 387.173 110.98 387.031 111.6 386.743C112.215 386.459 112.735 386.061 113.152 385.551C113.569 385.045 113.871 384.43 114.064 383.711C114.201 383.19 114.272 382.131 114.272 380.523V368.214H116.315V380.513C116.315 382.334 116.135 383.805 115.781 384.926C115.426 386.047 114.712 387.026 113.648 387.853C112.579 388.686 111.287 389.103 109.769 389.103C108.123 389.103 106.713 388.709 105.54 387.924C104.362 387.14 103.577 386.104 103.18 384.808C102.929 384.013 102.806 382.585 102.806 380.513V368.214H102.807ZM89.0148 370.202V368.215H100.168V370.202H95.628V388.592H93.5562V370.202H89.0148ZM75.189 384.78L76.9206 383.739C78.141 385.991 79.5504 387.117 81.1488 387.117C81.8346 387.117 82.4781 386.956 83.0784 386.639C83.6787 386.322 84.1377 385.892 84.45 385.358C84.7668 384.823 84.9234 384.255 84.9234 383.655C84.9234 382.974 84.6912 382.307 84.2277 381.65C83.5896 380.746 82.4259 379.653 80.7276 378.381C79.0248 377.095 77.9655 376.167 77.5488 375.594C76.8252 374.634 76.4661 373.594 76.4661 372.478C76.4661 371.593 76.6785 370.785 77.1042 370.056C77.5299 369.328 78.1311 368.755 78.906 368.334C79.6818 367.913 80.5188 367.705 81.4269 367.705C82.3917 367.705 83.2953 367.942 84.1323 368.42C84.9693 368.892 85.8585 369.768 86.7954 371.04L85.1304 372.302C84.3591 371.285 83.7021 370.614 83.1576 370.292C82.6131 369.965 82.0227 369.805 81.3837 369.805C80.5557 369.805 79.8798 370.056 79.3542 370.552C78.8295 371.053 78.564 371.663 78.564 372.397C78.564 372.837 78.6585 373.267 78.843 373.683C79.0275 374.1 79.3677 374.549 79.86 375.041C80.1246 375.297 81.0093 375.978 82.5042 377.075C84.2736 378.381 85.4886 379.54 86.1465 380.552C86.8044 381.569 87.1356 382.59 87.1356 383.617C87.1356 385.093 86.5731 386.379 85.4517 387.467C84.3258 388.56 82.9587 389.104 81.3504 389.104C80.1111 389.104 78.9852 388.773 77.9781 388.111C76.9719 387.447 76.0404 386.336 75.189 384.78Z" fill="black"/>
<path d="M186.202 400.058H185.216L180.242 396.038V400.058H178.937V394.091H179.923L184.91 398.054V394.091H186.202V400.058ZM168.637 398.916V395.192H163.9V398.916H168.637ZM170.067 398.648C170.067 399.212 169.956 399.588 169.734 399.776C169.512 399.964 169.114 400.058 168.54 400.058H163.997C163.423 400.058 163.025 399.966 162.802 399.782C162.58 399.599 162.469 399.221 162.469 398.648V395.502C162.469 394.928 162.581 394.55 162.802 394.366C163.025 394.183 163.423 394.091 163.997 394.091H168.54C169.114 394.091 169.512 394.183 169.734 394.366C169.956 394.55 170.067 394.928 170.067 395.502V398.648ZM153.599 400.058H152.168V394.091H153.599V400.058ZM143.924 395.164H141.076V400.058H139.645V395.164H136.811V394.092H143.923L143.924 395.164ZM128.566 398.648C128.566 399.212 128.453 399.588 128.226 399.776C127.999 399.964 127.599 400.058 127.025 400.058H123.135C122.561 400.058 122.163 399.964 121.94 399.776C121.718 399.588 121.607 399.212 121.607 398.648V394.091H123.038V398.943H127.123V394.091H128.567V398.648H128.566ZM113.335 400.058H107.279V394.091H108.723V398.943H113.335V400.058ZM96.9771 398.916V395.192H92.2404V398.916H96.9771ZM98.4081 398.648C98.4081 399.212 98.2974 399.588 98.0751 399.776C97.8528 399.964 97.4541 400.058 96.8808 400.058H92.3385C91.7643 400.058 91.3665 399.966 91.1442 399.782C90.9219 399.599 90.8112 399.221 90.8112 398.648V395.502C90.8112 394.928 90.9219 394.55 91.1442 394.366C91.3665 394.183 91.7652 394.091 92.3385 394.091H96.8808C97.455 394.091 97.8528 394.183 98.0751 394.366C98.2974 394.55 98.4081 394.928 98.4081 395.502V398.648ZM82.0785 398.648C82.0785 399.212 81.9678 399.588 81.7455 399.776C81.5232 399.964 81.1254 400.058 80.5512 400.058H76.7316C76.1016 400.058 75.6876 399.953 75.4887 399.74C75.2898 399.529 75.1899 399.107 75.1899 398.477L76.4679 398.238V398.944H80.7879V397.576H76.9818C76.4076 397.576 76.0143 397.487 75.801 397.307C75.5607 397.11 75.4401 396.729 75.4401 396.165V395.502C75.4401 394.938 75.5607 394.557 75.801 394.36C76.0143 394.181 76.4076 394.092 76.9818 394.092H80.4684C81.0615 394.092 81.4665 394.186 81.6834 394.373C81.9012 394.562 82.0101 394.948 82.0101 395.53L80.7735 395.798V395.164H76.7316V396.419H80.5503C81.1245 396.419 81.5223 396.511 81.7446 396.694C81.9669 396.877 82.0776 397.255 82.0776 397.829L82.0785 398.648Z" fill="#8CC740"/>
<path d="M252.329 372.72V402.96C252.329 402.96 259.079 404.76 266.909 410.7C266.909 410.7 255.209 405.39 246.839 404.49V371.37C246.749 371.37 249.719 371.1 252.329 372.72Z" fill="#7FCFF4"/>
<path d="M281.58 372.72V402.96C281.58 402.96 274.83 404.76 267 410.7C267 410.7 278.7 405.39 287.07 404.49V371.37C287.07 371.37 284.19 371.1 281.58 372.72Z" fill="#7FCFF4"/>
<path d="M239.37 374.79C239.37 374.79 241.71 374.25 243.6 375.6V405.84C243.6 405.84 257.91 407.82 266.19 410.52C266.19 410.52 252.6 407.37 239.37 407.73V374.79Z" fill="#354794"/>
<path d="M294.449 374.79C294.449 374.79 292.109 374.25 290.219 375.6V405.84C290.219 405.84 275.909 407.82 267.629 410.52C267.629 410.52 281.219 407.37 294.449 407.73V374.79Z" fill="#354794"/>
<path d="M299.129 381.36H310.559C310.649 381.72 310.649 382.17 310.649 382.62C310.649 382.8 310.649 383.07 310.649 383.25C310.649 383.52 310.649 383.7 310.559 383.88H302.099V389.82H308.849C308.849 390 308.939 390.18 308.939 390.45C308.939 390.63 308.939 390.9 308.939 391.08C308.939 391.26 308.939 391.53 308.939 391.71C308.939 391.98 308.849 392.16 308.849 392.34H302.099V399.45H310.829C310.919 399.81 310.919 400.26 310.919 400.71C310.919 400.89 310.919 401.16 310.919 401.34C310.919 401.61 310.919 401.79 310.829 401.97H299.129V381.36Z" fill="#1B75BB"/>
<path d="M323.61 380.91C323.79 380.91 324.06 380.82 324.33 380.82C324.6 380.82 324.87 380.82 325.05 380.82C325.23 380.82 325.5 380.82 325.77 380.82C326.04 380.82 326.31 380.91 326.49 380.91V401.7C325.77 401.88 324.96 402.06 324.06 402.24C323.16 402.42 322.17 402.42 321 402.42C319.92 402.42 318.93 402.33 318.03 402.06C317.13 401.79 316.32 401.34 315.6 400.8C314.88 400.17 314.34 399.45 313.98 398.46C313.62 397.56 313.35 396.39 313.35 394.95C313.35 393.78 313.53 392.7 313.89 391.71C314.25 390.72 314.79 389.91 315.42 389.19C316.05 388.47 316.86 387.93 317.76 387.57C318.66 387.21 319.65 387.03 320.82 387.03C321.36 387.03 321.81 387.03 322.35 387.12C322.89 387.21 323.34 387.3 323.7 387.39V380.91H323.61ZM323.61 389.82C323.25 389.64 322.8 389.55 322.35 389.46C321.9 389.37 321.45 389.37 320.91 389.37C320.1 389.37 319.47 389.55 318.84 389.82C318.3 390.09 317.76 390.54 317.4 390.99C317.04 391.53 316.77 392.07 316.59 392.79C316.41 393.51 316.32 394.23 316.32 395.04C316.32 396.84 316.77 398.19 317.58 399C318.39 399.81 319.56 400.17 321.09 400.17C321.63 400.17 322.08 400.17 322.44 400.08C322.89 399.99 323.25 399.99 323.61 399.9C323.61 399.81 323.61 389.82 323.61 389.82Z" fill="#1B75BB"/>
<path d="M330.899 387.3C331.079 387.3 331.349 387.21 331.619 387.21C331.889 387.21 332.159 387.21 332.339 387.21C332.519 387.21 332.789 387.21 333.059 387.21C333.329 387.21 333.599 387.3 333.779 387.3V395.4C333.779 396.3 333.869 397.11 334.049 397.74C334.229 398.37 334.499 398.82 334.859 399.18C335.219 399.54 335.669 399.81 336.119 399.9C336.659 400.08 337.199 400.08 337.829 400.08C338.819 400.08 339.629 399.99 340.349 399.72V387.3C340.529 387.3 340.799 387.21 341.069 387.21C341.339 387.21 341.609 387.21 341.789 387.21C341.969 387.21 342.239 387.21 342.509 387.21C342.779 387.21 343.049 387.3 343.229 387.3V401.7C342.509 401.88 341.789 402.06 340.799 402.24C339.899 402.42 338.909 402.51 337.919 402.51C337.019 402.51 336.119 402.42 335.219 402.24C334.409 402.06 333.599 401.7 332.969 401.25C332.339 400.71 331.799 400.08 331.439 399.18C331.079 398.28 330.899 397.11 330.899 395.58V387.3Z" fill="#1B75BB"/>
<path d="M357.539 399.54C357.719 399.81 357.809 400.17 357.899 400.53C357.989 400.89 358.079 401.34 358.079 401.79C356.909 402.24 355.649 402.42 354.209 402.42C351.779 402.42 349.889 401.7 348.629 400.35C347.369 398.91 346.739 397.11 346.739 394.68C346.739 393.6 346.919 392.52 347.189 391.62C347.459 390.72 347.999 389.82 348.539 389.19C349.169 388.47 349.889 387.93 350.789 387.57C351.689 387.21 352.769 386.94 353.939 386.94C354.749 386.94 355.469 387.03 356.099 387.12C356.729 387.21 357.269 387.39 357.899 387.57C357.899 387.93 357.899 388.29 357.809 388.74C357.719 389.19 357.629 389.55 357.449 389.91C356.549 389.55 355.469 389.46 354.209 389.46C352.769 389.46 351.599 389.91 350.879 390.9C350.159 391.89 349.799 393.15 349.799 394.77C349.799 396.66 350.249 398.01 351.059 398.82C351.869 399.72 353.039 400.08 354.479 400.08C355.019 400.08 355.559 400.08 356.099 399.99C356.549 399.9 357.089 399.72 357.539 399.54Z" fill="#1B75BB"/>
<path d="M369.329 392.34C369.329 391.17 369.059 390.45 368.429 390C367.889 389.55 366.989 389.37 365.909 389.37C365.189 389.37 364.559 389.46 364.019 389.55C363.479 389.64 362.849 389.82 362.309 390C361.949 389.37 361.769 388.56 361.769 387.75C362.399 387.57 363.119 387.39 363.929 387.3C364.739 387.21 365.459 387.12 366.179 387.12C368.069 387.12 369.599 387.57 370.589 388.47C371.579 389.37 372.119 390.72 372.119 392.7V401.97C371.399 402.15 370.589 402.24 369.689 402.42C368.699 402.6 367.709 402.69 366.719 402.69C365.819 402.69 364.919 402.6 364.199 402.42C363.479 402.24 362.759 401.97 362.219 401.61C361.679 401.25 361.319 400.71 360.959 400.17C360.599 399.63 360.509 398.82 360.509 398.01C360.509 397.2 360.689 396.48 361.049 395.85C361.409 395.22 361.859 394.68 362.399 394.32C362.939 393.87 363.659 393.6 364.379 393.42C365.099 393.24 365.909 393.15 366.719 393.15C367.349 393.15 367.799 393.15 368.249 393.15C368.609 393.15 368.969 393.24 369.239 393.24L369.329 392.34ZM369.329 395.13C369.059 395.13 368.699 395.04 368.249 395.04C367.799 395.04 367.439 394.95 367.079 394.95C365.909 394.95 365.009 395.13 364.379 395.58C363.749 396.03 363.479 396.66 363.479 397.56C363.479 398.1 363.569 398.55 363.839 398.91C364.109 399.27 364.289 399.45 364.649 399.63C365.009 399.81 365.279 399.9 365.729 399.99C366.179 400.08 366.449 400.08 366.809 400.08C367.259 400.08 367.709 400.08 368.159 399.99C368.609 399.9 369.059 399.9 369.419 399.81L369.329 395.13Z" fill="#1B75BB"/>
<path d="M376.98 389.551H374.73L374.64 389.101L379.59 383.521H379.86V387.211H383.64C383.73 387.571 383.73 387.931 383.73 388.291C383.73 388.471 383.73 388.741 383.73 388.921C383.73 389.101 383.64 389.281 383.64 389.461H379.86V396.211C379.86 397.021 379.86 397.651 379.95 398.191C380.04 398.641 380.13 399.001 380.31 399.271C380.49 399.541 380.67 399.721 380.94 399.811C381.21 399.901 381.57 399.901 382.02 399.901C382.38 399.901 382.65 399.901 382.92 399.811C383.19 399.721 383.46 399.721 383.73 399.631C383.82 399.991 383.91 400.441 384 400.801C384 401.161 384 401.521 384 401.881C383.64 401.971 383.19 402.061 382.83 402.061C382.38 402.151 381.93 402.151 381.48 402.151C380.13 402.151 379.05 401.791 378.24 401.161C377.43 400.531 377.07 399.361 377.07 397.831L376.98 389.551Z" fill="#1B75BB"/>
<path d="M387.689 389.55H385.799C385.799 389.37 385.709 389.19 385.709 389.01C385.709 388.83 385.709 388.65 385.709 388.38C385.709 388.11 385.709 388.02 385.709 387.75C385.709 387.57 385.799 387.39 385.799 387.21H390.479V402.06C390.299 402.06 390.029 402.15 389.759 402.15C389.489 402.15 389.219 402.15 389.039 402.15C388.859 402.15 388.589 402.15 388.319 402.15C388.049 402.15 387.779 402.06 387.599 402.06L387.689 389.55ZM386.969 384.06C386.969 383.79 386.879 383.61 386.879 383.34C386.879 383.07 386.879 382.8 386.879 382.62C386.879 382.44 386.879 382.17 386.879 381.9C386.879 381.63 386.879 381.36 386.969 381.18C387.239 381.18 387.509 381.09 387.779 381.09C388.049 381.09 388.319 381.09 388.499 381.09C388.679 381.09 388.949 381.09 389.219 381.09C389.489 381.09 389.759 381.18 390.029 381.18C390.029 381.36 390.119 381.63 390.119 381.9C390.119 382.17 390.119 382.44 390.119 382.62C390.119 382.8 390.119 383.07 390.119 383.34C390.119 383.61 390.119 383.88 390.029 384.06C389.759 384.06 389.579 384.15 389.219 384.15C388.949 384.15 388.679 384.15 388.499 384.15C388.229 384.15 388.049 384.15 387.689 384.15C387.509 384.06 387.239 384.06 386.969 384.06Z" fill="#1B75BB"/>
<path d="M401.099 402.51C399.929 402.51 398.939 402.33 398.039 401.88C397.139 401.52 396.419 400.98 395.879 400.26C395.339 399.54 394.889 398.73 394.619 397.83C394.349 396.93 394.169 395.85 394.169 394.77C394.169 393.69 394.349 392.61 394.619 391.71C394.889 390.81 395.339 389.91 395.879 389.28C396.419 388.56 397.139 388.02 398.039 387.66C398.939 387.21 399.929 387.03 401.099 387.03C402.269 387.03 403.259 387.21 404.159 387.66C405.059 388.11 405.779 388.65 406.319 389.28C406.859 390 407.309 390.81 407.579 391.71C407.849 392.61 408.029 393.69 408.029 394.77C408.029 395.85 407.849 396.93 407.579 397.83C407.309 398.82 406.859 399.63 406.319 400.26C405.779 400.98 405.059 401.52 404.159 401.88C403.259 402.24 402.269 402.51 401.099 402.51ZM401.099 400.17C402.449 400.17 403.439 399.72 404.069 398.73C404.699 397.74 405.059 396.39 405.059 394.68C405.059 392.97 404.699 391.62 404.069 390.72C403.439 389.82 402.449 389.28 401.099 389.28C399.749 389.28 398.759 389.73 398.129 390.72C397.499 391.71 397.229 392.97 397.229 394.68C397.229 396.39 397.499 397.74 398.129 398.73C398.849 399.72 399.749 400.17 401.099 400.17Z" fill="#1B75BB"/>
<path d="M411.81 387.3C411.99 387.3 412.26 387.21 412.44 387.21C412.62 387.21 412.89 387.21 413.07 387.21C413.25 387.21 413.52 387.21 413.7 387.21C413.88 387.21 414.06 387.3 414.33 387.3C414.42 387.57 414.42 388.02 414.51 388.47C414.6 388.92 414.6 389.37 414.6 389.73C414.78 389.37 415.05 389.1 415.32 388.74C415.59 388.38 415.95 388.11 416.31 387.84C416.67 387.57 417.12 387.39 417.66 387.21C418.2 387.03 418.74 386.94 419.28 386.94C420.99 386.94 422.25 387.39 423.06 388.38C423.87 389.37 424.23 390.81 424.23 392.7V402.06C424.05 402.06 423.78 402.15 423.51 402.15C423.24 402.15 422.97 402.15 422.79 402.15C422.61 402.15 422.34 402.15 422.07 402.15C421.8 402.15 421.53 402.06 421.35 402.06V393.42C421.35 392.07 421.17 391.08 420.72 390.36C420.27 389.73 419.64 389.37 418.74 389.37C418.2 389.37 417.66 389.46 417.21 389.64C416.76 389.82 416.31 390.09 415.95 390.54C415.59 390.99 415.32 391.44 415.05 392.16C414.87 392.79 414.69 393.6 414.69 394.5V402.06C414.51 402.06 414.24 402.15 413.97 402.15C413.7 402.15 413.43 402.15 413.25 402.15C413.07 402.15 412.8 402.15 412.53 402.15C412.26 402.15 411.99 402.06 411.81 402.06V387.3Z" fill="#1B75BB"/>
<path d="M269.789 392.07L268.079 397.02C265.469 392.25 263.489 389.37 256.379 382.08C256.379 389.46 256.379 397.65 256.379 401.07C263.759 404.76 266.819 410.34 266.819 410.34C266.819 410.34 269.879 404.76 277.259 401.07C277.259 396.75 277.259 384.6 277.259 376.41C272.399 384.78 269.879 391.98 269.789 392.07Z" fill="#1B75BB"/>
<path d="M256.379 379.021C256.379 379.021 264.479 386.041 267.629 391.351C267.629 391.351 275.099 369.661 290.399 357.061C290.399 357.061 275.819 364.621 266.909 377.491C266.909 377.491 263.039 371.371 256.469 368.311C256.379 368.311 256.379 379.021 256.379 379.021Z" fill="#8BC53F"/>
<defs>
<linearGradient id="paint0_linear_409_552" x1="13.6447" y1="238.789" x2="16.7732" y2="213.309" gradientUnits="userSpaceOnUse">
<stop stop-color="#007FC3"/>
<stop offset="1" stop-color="#5CAF47"/>
</linearGradient>
<linearGradient id="paint1_linear_409_552" x1="40.3636" y1="241.87" x2="41.4748" y2="210.051" gradientUnits="userSpaceOnUse">
<stop stop-color="#490E4A"/>
<stop offset="1" stop-color="#E41D37"/>
</linearGradient>
<linearGradient id="paint2_linear_409_552" x1="27.5906" y1="193.974" x2="27.9277" y2="213.288" gradientUnits="userSpaceOnUse">
<stop stop-color="#F37C20"/>
<stop offset="1" stop-color="#CD2026"/>
</linearGradient>
</defs>
</svg>
