<svg width="36" height="41" viewBox="0 0 36 41" fill="none" xmlns="http://www.w3.org/2000/svg">
<path d="M4.8 2.4H24C24.6365 2.4 25.247 2.65286 25.6971 3.10294C26.1471 3.55303 26.4 4.16348 26.4 4.8V16.8528C27.212 16.9264 28.0154 17.075 28.8 17.2968V4.8C28.8 3.52696 28.2943 2.30606 27.3941 1.40589C26.4939 0.505713 25.273 0 24 0H4.8C3.52696 0 2.30606 0.505713 1.40589 1.40589C0.505713 2.30606 0 3.52696 0 4.8V33.6C0 34.873 0.505713 36.0939 1.40589 36.9941C2.30606 37.8943 3.52696 38.4 4.8 38.4H15.0168C14.4055 37.6597 13.8768 36.8549 13.44 36H4.8C4.16348 36 3.55303 35.7471 3.10294 35.2971C2.65286 34.847 2.4 34.2365 2.4 33.6H12.4968C12.2747 32.8155 12.1261 32.012 12.0528 31.2H2.4V4.8C2.4 4.16348 2.65286 3.55303 3.10294 3.10294C3.55303 2.65286 4.16348 2.4 4.8 2.4ZM7.2 4.8C6.56348 4.8 5.95303 5.05286 5.50294 5.50294C5.05286 5.95303 4.8 6.56348 4.8 7.2V9.6C4.8 10.2365 5.05286 10.847 5.50294 11.2971C5.95303 11.7471 6.56348 12 7.2 12H21.6C22.2365 12 22.847 11.7471 23.2971 11.2971C23.7471 10.847 24 10.2365 24 9.6V7.2C24 6.56348 23.7471 5.95303 23.2971 5.50294C22.847 5.05286 22.2365 4.8 21.6 4.8H7.2ZM21.6 7.2V9.6H7.2V7.2H21.6ZM36 30C36 32.8643 34.8621 35.6114 32.8368 37.6367C30.8114 39.6621 28.0643 40.8 25.2 40.8C22.3357 40.8 19.5886 39.6621 17.5632 37.6367C15.5379 35.6114 14.4 32.8643 14.4 30C14.4 27.1357 15.5379 24.3886 17.5632 22.3632C19.5886 20.3379 22.3357 19.2 25.2 19.2C28.0643 19.2 30.8114 20.3379 32.8368 22.3632C34.8621 24.3886 36 27.1357 36 30ZM24.048 25.2816C23.8924 25.1747 23.7115 25.1103 23.5234 25.0947C23.3352 25.0792 23.1463 25.113 22.9752 25.1928C22.8356 25.2542 22.7092 25.3423 22.6032 25.452C22.3796 25.6811 22.2547 25.9887 22.2552 26.3088V33.6888C22.2537 33.8479 22.2837 34.0057 22.3434 34.1531C22.4032 34.3006 22.4914 34.4348 22.6032 34.548C22.7128 34.6569 22.8402 34.7462 22.98 34.812C23.2235 34.9236 23.4998 34.9407 23.7552 34.86C23.8658 34.8236 23.9708 34.7719 24.0672 34.7064L29.5776 30.9456C29.7453 30.8351 29.8803 30.6818 29.9688 30.5016C30.06 30.32 30.1069 30.1195 30.1056 29.9163C30.1044 29.7132 30.055 29.5132 29.9616 29.3328C29.8678 29.1552 29.7297 29.0047 29.5608 28.896L24.048 25.2816Z" fill="#FC4F13"/>
</svg>
