<svg width="46" height="41" viewBox="0 0 46 41" fill="none" xmlns="http://www.w3.org/2000/svg">
<path d="M44.8125 9.79167C43.8334 9.29167 42.8125 8.875 41.75 8.52083V33.5833C39.375 32.7292 36.9375 32.2917 34.4584 32.2917C30.5 32.2917 26.5834 33.4167 23 35.5833V10.375C19.625 8.4375 15.7292 7.29167 11.5417 7.29167C7.81254 7.29167 4.29171 8.20833 1.18754 9.79167C0.500041 10.125 0.083374 10.8542 0.083374 11.625V36.7917C0.083374 38 1.06254 38.8542 2.16671 38.8542C2.50004 38.8542 2.83337 38.7708 3.16671 38.6042C5.68754 37.2917 8.52087 36.4583 11.5417 36.4583C15.8542 36.4583 19.8334 38.1667 23 40.625C26.1667 38.1667 30.1459 36.4583 34.4584 36.4583C37.4792 36.4583 40.3125 37.2917 42.8334 38.625C43.1667 38.7917 43.5 38.875 43.8334 38.875C44.9167 38.875 45.9167 38.0208 45.9167 36.8125V11.625C45.9167 10.8542 45.5 10.125 44.8125 9.79167ZM18.8334 33.5833C16.4584 32.7292 14.0209 32.2917 11.5417 32.2917C9.06254 32.2917 6.62504 32.7292 4.25004 33.5833V12.9375C6.56254 11.9583 9.00004 11.4583 11.5417 11.4583C14.0417 11.4583 16.5209 11.9792 18.8334 12.9583V33.5833ZM37.5834 0L27.1667 10.4167V30.2083L37.5834 20.8333V0Z" fill="#FC4F13"/>
</svg>
