<svg width="46" height="40" viewBox="0 0 46 40" fill="none" xmlns="http://www.w3.org/2000/svg">
<path d="M0.142029 5.00018C0.142029 2.23722 2.38211 0 5.14221 0H29.4288C32.1918 0 34.429 2.23722 34.429 5.00018V20.715C34.429 22.0412 33.9022 23.313 32.9645 24.2507C32.0268 25.1884 30.7549 25.7152 29.4288 25.7152H20.317L12.9625 33.0669C12.3803 33.6488 11.6386 34.0451 10.8313 34.2056C10.0239 34.3661 9.18712 34.2837 8.42661 33.9687C7.6661 33.6537 7.01604 33.1204 6.55858 32.436C6.10112 31.7517 5.85681 30.9471 5.85652 30.124V25.7152H5.14221C3.81608 25.7152 2.54426 25.1884 1.60655 24.2507C0.668832 23.313 0.142029 22.0412 0.142029 20.715L0.142029 5.00018ZM5.14221 4.28587C4.95276 4.28587 4.77107 4.36113 4.63712 4.49509C4.50316 4.62905 4.4279 4.81073 4.4279 5.00018V20.715C4.4279 21.1093 4.74791 21.4293 5.14221 21.4293H7.99946C8.5678 21.4293 9.11286 21.6551 9.51474 22.057C9.91662 22.4589 10.1424 23.0039 10.1424 23.5723V29.8268L17.9141 22.0579C18.1126 21.8585 18.3486 21.7003 18.6085 21.5924C18.8684 21.4846 19.1471 21.4291 19.4284 21.4293H29.4288C29.6183 21.4293 29.7999 21.3541 29.9339 21.2201C30.0679 21.0862 30.1431 20.9045 30.1431 20.715V5.00018C30.1431 4.81073 30.0679 4.62905 29.9339 4.49509C29.7999 4.36113 29.6183 4.28587 29.4288 4.28587H5.14221ZM40.8578 10.0004H39.4292C38.8608 10.0004 38.3158 9.77459 37.9139 9.37271C37.512 8.97083 37.2862 8.42577 37.2862 7.85743C37.2862 7.28909 37.512 6.74402 37.9139 6.34214C38.3158 5.94027 38.8608 5.71449 39.4292 5.71449H40.8578C43.6207 5.71449 45.858 7.95172 45.858 10.7147V26.4295C45.858 27.7557 45.3312 29.0275 44.3935 29.9652C43.4557 30.9029 42.1839 31.4297 40.8578 31.4297H40.1435V35.8384C40.1432 36.6616 39.8989 37.4662 39.4414 38.1505C38.984 38.8349 38.3339 39.3682 37.5734 39.6832C36.8129 39.9982 35.9761 40.0806 35.1687 39.9201C34.3614 39.7596 33.6197 39.3633 33.0375 38.7814L26.4858 32.2297C26.287 32.0309 26.1292 31.7948 26.0216 31.535C25.914 31.2751 25.8586 30.9966 25.8586 30.7154C25.8586 30.4342 25.914 30.1557 26.0216 29.8958C26.1292 29.636 26.287 29.3999 26.4858 29.2011C26.6847 29.0022 26.9208 28.8444 27.1806 28.7368C27.4405 28.6292 27.7189 28.5738 28.0002 28.5738C28.2814 28.5738 28.5599 28.6292 28.8197 28.7368C29.0796 28.8444 29.3157 29.0022 29.5145 29.2011L35.8576 35.5413V29.2868C35.8576 28.7184 36.0834 28.1734 36.4853 27.7715C36.8871 27.3696 37.4322 27.1438 38.0005 27.1438H40.8578C41.0472 27.1438 41.2289 27.0686 41.3629 26.9346C41.4968 26.8007 41.5721 26.619 41.5721 26.4295V10.7147C41.5721 10.5252 41.4968 10.3435 41.3629 10.2096C41.2289 10.0756 41.0472 10.0004 40.8578 10.0004ZM25.2287 10.8004L16.6569 19.3721C16.4585 19.5719 16.2226 19.7304 15.9627 19.8386C15.7028 19.9467 15.4241 20.0024 15.1426 20.0024C14.8611 20.0024 14.5823 19.9467 14.3224 19.8386C14.0625 19.7304 13.8266 19.5719 13.6282 19.3721L9.34236 15.0863C9.1435 14.8874 8.98575 14.6513 8.87812 14.3915C8.7705 14.1316 8.7151 13.8532 8.7151 13.5719C8.7151 13.2907 8.7705 13.0122 8.87812 12.7524C8.98575 12.4925 9.1435 12.2564 9.34236 12.0576C9.54123 11.8587 9.77732 11.701 10.0371 11.5933C10.297 11.4857 10.5755 11.4303 10.8567 11.4303C11.1379 11.4303 11.4164 11.4857 11.6763 11.5933C11.9361 11.701 12.1722 11.8587 12.371 12.0576L15.1426 14.8263L22.2 7.77171C22.6016 7.37008 23.1463 7.14445 23.7143 7.14445C24.2823 7.14445 24.827 7.37008 25.2287 7.77171C25.6303 8.17334 25.8559 8.71806 25.8559 9.28605C25.8559 9.85404 25.6303 10.3988 25.2287 10.8004Z" fill="#FC4F13"/>
</svg>
