<svg width="26" height="36" viewBox="0 0 26 36" fill="none" xmlns="http://www.w3.org/2000/svg">
<path d="M22.8557 3.71398H25.7127V0.856995H22.8557C22.0417 0.859714 21.2377 1.0374 20.4983 1.37801C19.7589 1.71863 19.1014 2.21421 18.5703 2.83117C18.0392 2.21421 17.3816 1.71863 16.6422 1.37801C15.9028 1.0374 15.0989 0.859714 14.2848 0.856995H12.8563C9.44772 0.860776 6.17984 2.2165 3.76961 4.62673C1.35938 7.03696 0.00365894 10.3048 -0.00012207 13.7134V22.2844C0.00365894 25.6929 1.35938 28.9608 3.76961 31.371C6.17984 33.7813 9.44772 35.137 12.8563 35.1408H14.2848C15.0989 35.1381 15.9028 34.9604 16.6422 34.6198C17.3816 34.2792 18.0392 33.7836 18.5703 33.1666C19.1014 33.7836 19.7589 34.2792 20.4983 34.6198C21.2377 34.9604 22.0417 35.1381 22.8557 35.1408H25.7127V32.2838H22.8557C22.0983 32.283 21.372 31.9818 20.8364 31.4462C20.3008 30.9106 19.9995 30.1843 19.9988 29.4268V6.57096C19.9995 5.81347 20.3008 5.08723 20.8364 4.5516C21.372 4.01598 22.0983 3.71473 22.8557 3.71398ZM14.2848 32.2838H12.8563C10.4542 32.2795 8.13381 31.4113 6.31892 29.8377C4.50403 28.2641 3.31576 26.0901 2.97114 23.7129H5.71384V20.8559H2.85686V15.1419H7.14233C8.27856 15.1408 9.36793 14.6889 10.1714 13.8855C10.9748 13.082 11.4267 11.9927 11.4278 10.8564V7.99945H8.57083V10.8564C8.57083 11.2353 8.42032 11.5986 8.15243 11.8665C7.88454 12.1344 7.52119 12.2849 7.14233 12.2849H2.97114C3.31576 9.90768 4.50403 7.73372 6.31892 6.16012C8.13381 4.58652 10.4542 3.71828 12.8563 3.71398H14.2848C15.0423 3.71473 15.7685 4.01598 16.3041 4.5516C16.8398 5.08723 17.141 5.81347 17.1418 6.57096V12.2849H14.2848V15.1419H17.1418V20.8559H14.2848C13.1486 20.857 12.0592 21.3089 11.2558 22.1123C10.4523 22.9157 10.0005 24.0051 9.99932 25.1413V27.9983H12.8563V25.1413C12.8563 24.7625 13.0068 24.3991 13.2747 24.1312C13.5426 23.8634 13.9059 23.7129 14.2848 23.7129H17.1418V29.4268C17.141 30.1843 16.8398 30.9106 16.3041 31.4462C15.7685 31.9818 15.0423 32.283 14.2848 32.2838Z" fill="#FC4F13"/>
</svg>
