<svg width="32" height="32" viewBox="0 0 32 32" fill="none" xmlns="http://www.w3.org/2000/svg">
<path fill-rule="evenodd" clip-rule="evenodd" d="M0 16C0 8.4576 0 4.6864 2.3424 2.3424C4.688 0 8.4576 0 16 0C23.5424 0 27.3136 0 29.656 2.3424C32 4.688 32 8.4576 32 16C32 23.5424 32 27.3136 29.656 29.656C27.3152 32 23.5424 32 16 32C8.4576 32 4.6864 32 2.3424 29.656C0 27.3152 0 23.5424 0 16ZM7.6 9.6C7.6 9.28174 7.47357 8.97652 7.24853 8.75147C7.02348 8.52643 6.71826 8.4 6.4 8.4C6.08174 8.4 5.77652 8.52643 5.55147 8.75147C5.32643 8.97652 5.2 9.28174 5.2 9.6V21.7904C5.2 22.1087 5.32643 22.4139 5.55147 22.6389C5.77652 22.864 6.08174 22.9904 6.4 22.9904C6.71826 22.9904 7.02348 22.864 7.24853 22.6389C7.47357 22.4139 7.6 22.1087 7.6 21.7904V17.2H12.904V21.7904C12.904 22.1087 13.0304 22.4139 13.2555 22.6389C13.4805 22.864 13.7857 22.9904 14.104 22.9904C14.4223 22.9904 14.7275 22.864 14.9525 22.6389C15.1776 22.4139 15.304 22.1087 15.304 21.7904V9.6C15.304 9.28174 15.1776 8.97652 14.9525 8.75147C14.7275 8.52643 14.4223 8.4 14.104 8.4C13.7857 8.4 13.4805 8.52643 13.2555 8.75147C13.0304 8.97652 12.904 9.28174 12.904 9.6V14.8H7.6V9.6ZM22.4752 8.4H22.68C23.296 8.4 23.744 8.4 24.136 8.4608C25.6928 8.7056 27.1424 9.712 27.5344 11.2704C27.6304 11.6544 27.6304 12.0832 27.6304 12.5376V18.8528C27.6304 19.3072 27.6304 19.736 27.5344 20.12C27.4661 20.3899 27.3639 20.6501 27.2304 20.8944L27.944 21.4592C28.1826 21.6601 28.3336 21.9459 28.365 22.2562C28.3964 22.5665 28.3058 22.8769 28.1123 23.1215C27.9189 23.3661 27.6378 23.5258 27.3286 23.5667C27.0194 23.6077 26.7065 23.5266 26.456 23.3408L25.432 22.5328C25.024 22.7248 24.584 22.8592 24.136 22.9296C23.744 22.9904 23.296 22.9904 22.68 22.9904H22.4752C21.8592 22.9904 21.4128 22.9904 21.0192 22.9296C19.464 22.6848 18.0128 21.68 17.6208 20.12C17.5248 19.736 17.5248 19.3072 17.5248 18.8528V12.5376C17.5248 12.0832 17.5248 11.6544 17.6208 11.2704C18.0128 9.712 19.464 8.7056 21.0192 8.4608C21.4128 8.4 21.8592 8.4 22.4752 8.4ZM25.2256 19.3072L24.8624 19.0208C24.6414 18.8458 24.3658 18.7541 24.084 18.762C23.8022 18.7699 23.5321 18.8767 23.3212 19.0637C23.1103 19.2508 22.9719 19.5062 22.9305 19.785C22.889 20.0639 22.947 20.3485 23.0944 20.5888L22.5776 20.5904C21.816 20.5904 21.5744 20.5872 21.3936 20.5584C20.504 20.4176 20.0432 19.9104 19.9488 19.5344C19.9344 19.48 19.9264 19.3808 19.9264 18.7424V12.6464C19.9264 12.0096 19.9344 11.9104 19.9488 11.8544C20.0448 11.48 20.504 10.9728 21.392 10.832C21.5744 10.8032 21.816 10.8 22.5776 10.8C23.3392 10.8 23.5808 10.8032 23.7616 10.832C24.6512 10.9728 25.112 11.48 25.2064 11.856C25.2208 11.9104 25.2288 12.0096 25.2288 12.648V18.744C25.2288 19.0176 25.2288 19.192 25.2256 19.3072Z" fill="#FC4F13"/>
</svg>
