<svg width="32" height="32" viewBox="0 0 32 32" fill="none" xmlns="http://www.w3.org/2000/svg">
<path d="M16 25.6C18.5461 25.6 20.9879 24.5886 22.7882 22.7882C24.5886 20.9879 25.6 18.5461 25.6 16C25.6 13.4539 24.5886 11.0121 22.7882 9.21178C20.9879 7.41143 18.5461 6.4 16 6.4C13.4539 6.4 11.0121 7.41143 9.21178 9.21178C7.41143 11.0121 6.4 13.4539 6.4 16C6.4 18.5461 7.41143 20.9879 9.21178 22.7882C11.0121 24.5886 13.4539 25.6 16 25.6ZM16 0C7.1632 0 0 7.1632 0 16C0 24.8368 7.1632 32 16 32C24.8368 32 32 24.8368 32 16C32 7.1632 24.8368 0 16 0ZM2.4 16C2.4 12.3931 3.83285 8.93384 6.38335 6.38335C8.93384 3.83285 12.3931 2.4 16 2.4C19.6069 2.4 23.0662 3.83285 25.6167 6.38335C28.1671 8.93384 29.6 12.3931 29.6 16C29.6 19.6069 28.1671 23.0662 25.6167 25.6167C23.0662 28.1671 19.6069 29.6 16 29.6C12.3931 29.6 8.93384 28.1671 6.38335 25.6167C3.83285 23.0662 2.4 19.6069 2.4 16Z" fill="#FC4F13"/>
</svg>
